<svg width="52" height="52" viewBox="0 0 52 52" fill="none" xmlns="http://www.w3.org/2000/svg">
<path d="M41.275 10.6383C39.2886 8.63183 36.9226 7.04093 34.3149 5.95843C31.7072 4.87593 28.9101 4.32348 26.0867 4.33332C14.2567 4.33332 4.615 13.975 4.615 25.805C4.615 29.5967 5.61167 33.28 7.475 36.53L4.44167 47.6667L15.8167 44.6767C18.9583 46.3883 22.49 47.2983 26.0867 47.2983C37.9167 47.2983 47.5583 37.6567 47.5583 25.8267C47.5583 20.085 45.3267 14.69 41.275 10.6383ZM26.0867 43.6583C22.88 43.6583 19.7383 42.7917 16.9867 41.1667L16.3367 40.7767L9.57667 42.5533L11.375 35.9667L10.9417 35.295C9.16012 32.4501 8.21414 29.1617 8.21167 25.805C8.21167 15.9683 16.2283 7.95165 26.065 7.95165C30.8317 7.95165 35.3167 9.81499 38.675 13.195C40.3379 14.8502 41.6557 16.8191 42.552 18.9874C43.4484 21.1557 43.9054 23.4804 43.8967 25.8267C43.94 35.6633 35.9233 43.6583 26.0867 43.6583ZM35.88 30.3117C35.3383 30.0517 32.695 28.7517 32.2183 28.5567C31.72 28.3833 31.3733 28.2967 31.005 28.8167C30.6367 29.3583 29.6183 30.5717 29.315 30.9183C29.0117 31.2867 28.6867 31.33 28.145 31.0483C27.6033 30.7883 25.87 30.2033 23.8333 28.3833C22.23 26.9533 21.1683 25.1983 20.8433 24.6567C20.54 24.115 20.8 23.8333 21.0817 23.5517C21.32 23.3133 21.6233 22.9233 21.8833 22.62C22.1433 22.3167 22.2517 22.0783 22.425 21.7317C22.5983 21.3633 22.5117 21.06 22.3817 20.8C22.2517 20.54 21.1683 17.8967 20.735 16.8133C20.3017 15.7733 19.8467 15.9033 19.5217 15.8817H18.4817C18.1133 15.8817 17.55 16.0117 17.0517 16.5533C16.575 17.095 15.1883 18.395 15.1883 21.0383C15.1883 23.6817 17.1167 26.2383 17.3767 26.585C17.6367 26.9533 21.1683 32.37 26.5417 34.6883C27.82 35.2517 28.8167 35.5767 29.5967 35.815C30.875 36.2267 32.045 36.1617 32.9767 36.0317C34.0167 35.88 36.1617 34.7317 36.595 33.475C37.05 32.2183 37.05 31.1567 36.8983 30.9183C36.7467 30.68 36.4217 30.5717 35.88 30.3117Z" fill="white"/>
</svg>
